<?xml version="1.0" encoding="UTF-8" standalone="no"?>
<svg
   width="76"
   height="66"
   version="1.1"
   id="svg21"
   sodipodi:docname="slider.svg"
   inkscape:version="1.4 (e7c3feb100, 2024-10-09)"
   xmlns:inkscape="http://www.inkscape.org/namespaces/inkscape"
   xmlns:sodipodi="http://sodipodi.sourceforge.net/DTD/sodipodi-0.dtd"
   xmlns:xlink="http://www.w3.org/1999/xlink"
   xmlns="http://www.w3.org/2000/svg"
   xmlns:svg="http://www.w3.org/2000/svg"
   xmlns:rdf="http://www.w3.org/1999/02/22-rdf-syntax-ns#"
   xmlns:cc="http://creativecommons.org/ns#"
   xmlns:dc="http://purl.org/dc/elements/1.1/">
  <sodipodi:namedview
     id="namedview21"
     pagecolor="#ffffff"
     bordercolor="#666666"
     borderopacity="1.0"
     inkscape:showpageshadow="2"
     inkscape:pageopacity="0.0"
     inkscape:pagecheckerboard="0"
     inkscape:deskcolor="#d1d1d1"
     inkscape:zoom="23.334524"
     inkscape:cx="39.405132"
     inkscape:cy="7.6924647"
     inkscape:window-width="2560"
     inkscape:window-height="1311"
     inkscape:window-x="0"
     inkscape:window-y="0"
     inkscape:window-maximized="1"
     inkscape:current-layer="svg21"
     showguides="true">
    <sodipodi:guide
       position="40.255703,88.250093"
       orientation="0,-1"
       id="guide25"
       inkscape:locked="false" />
    <sodipodi:guide
       position="41.18897,71.282208"
       orientation="0,-1"
       id="guide26"
       inkscape:locked="false" />
    <sodipodi:guide
       position="46.610457,63.997703"
       orientation="0,-1"
       id="guide27"
       inkscape:locked="false" />
    <sodipodi:guide
       position="47.700245,45.699808"
       orientation="0,-1"
       id="guide28"
       inkscape:locked="false" />
  </sodipodi:namedview>
  <metadata
     id="metadata1">
    <rdf:RDF>
      <cc:Work
         rdf:about="">
        <dc:format>image/svg+xml</dc:format>
        <dc:type
           rdf:resource="http://purl.org/dc/dcmitype/StillImage" />
        <dc:title />
      </cc:Work>
    </rdf:RDF>
  </metadata>
  <defs
     id="defs2">
    <radialGradient
       id="radialGradient915"
       cx="41"
       cy="20"
       r="16"
       gradientUnits="userSpaceOnUse">
      <stop
         offset="0"
         id="stop1" />
      <stop
         stop-opacity="0"
         offset="1"
         id="stop2" />
    </radialGradient>
  </defs>
  <g
     id="vertical-slider-handle"
     transform="matrix(0.5,0,0,0.5,-9.7572828,-0.80006122)"
     stroke-width=".91667"
     style="stroke-width:0.917333;stroke-dasharray:none">
    <rect
       x="25"
       y="4"
       width="40"
       height="40"
       opacity="0"
       id="rect2"
       style="opacity:0;stroke-width:0.917333;stroke-dasharray:none" />
    <circle
       cx="45"
       cy="24"
       r="18.462"
       opacity="0.1"
       stroke-width="1.46661"
       id="circle3"
       style="stroke-width:1.05849;stroke-dasharray:none;fill:#000000;fill-opacity:1;opacity:0.15" />
    <circle
       cx="45"
       cy="24"
       r="15.824629"
       fill="#ffffff"
       id="circle4"
       style="stroke-width:1.05849;stroke-dasharray:none" />
  </g>
  <g
     id="vertical-slider-hover"
     transform="matrix(0.625,0,0,0.625,12.117717,-1.3000612)"
     stroke-width="0.91667">
    <rect
       x="25"
       y="4"
       width="32"
       height="32"
       opacity="0"
       id="rect5" />
    <circle
       cx="41"
       cy="20"
       r="14.7696"
       opacity="0.15"
       stroke-width="0.846175"
       id="circle6"
       style="opacity:0.2;fill:#000000;fill-opacity:1" />
    <circle
       cx="41"
       cy="20"
       r="12.659703"
       fill="#ffffff"
       id="circle7"
       style="stroke-width:1.4506" />
  </g>
  <g
     id="vertical-slider-focus"
     transform="matrix(0.9375,0,0,0.9375,29.305217,-2.5500612)"
     stroke-width="0.91667">
    <rect
       x="25"
       y="4"
       width="21.333334"
       height="21.333334"
       opacity="0"
       id="rect8"
       style="stroke-width:0.611113" />
    <circle
       cx="35.666668"
       cy="14.666667"
       r="9.8469334"
       opacity="0.15"
       stroke-width="0.564147"
       id="circle9"
       style="fill:#000000;fill-opacity:1;opacity:0.2" />
    <circle
       cx="35.666668"
       cy="14.666667"
       r="8.440259"
       fill="#ffffff"
       id="circle10"
       style="stroke-width:0.967117" />
  </g>
  <g
     id="groove-topleft"
     transform="matrix(1.5384615,0,0,1.5384615,-0.53846154,12.923077)">
    <path
       d="m 7,-24 c -3.3644,0 -6,2.6356 -6,6 h 6 z"
       opacity="0.13"
       stroke-width="5.9416"
       id="path10"
       style="stroke-width:5.94165015;stroke-dasharray:none;fill:#ffffff;fill-opacity:1;opacity:0.15" />
    <path
       d="m 7,-24 c -3.3644,0 -6,2.6356 -6,6 h 1 c 0,-2.8037 2.1963,-5 5,-5 z"
       opacity="0.06"
       id="path11"
       style="opacity:0.15;fill:#000000;fill-opacity:1;stroke-width:0.99970002;stroke-dasharray:none" />
  </g>
  <rect
     id="hint-tile-center"
     x="-13.657161"
     y="-19.714504"
     width="12"
     height="12"
     rx="0"
     ry="12"
     fill="#4e9a06"
     stroke-width="6" />
  <path
     id="groove-center"
     d="m 10.230769,-14.769231 v 1.538462 h 4.615385 v -1.538462 z"
     opacity="0.13"
     stroke-width="1.732"
     style="fill:#ffffff;fill-opacity:1;opacity:0.15" />
  <circle
     id="hint-handle-size"
     cx="83.226921"
     cy="-15.34284"
     fill="#ff2a2a"
     r="12" />
  <g
     id="groove-highlight-top"
     transform="matrix(1.5384615,0,0,1.5384615,1.8170231,13.094496)">
    <path
       d="m 23,-24 v 6 h 3 v -6 z"
       opacity="0"
       stroke-width="4.2426"
       id="path12" />
    <path
       d="m 23,-23 v 5 h 3 v -5 z"
       fill="#ffffff"
       stroke-width="3.873"
       id="path13"
       style="opacity:1"
       sodipodi:nodetypes="ccccc" />
  </g>
  <g
     id="groove-highlight-topleft"
     transform="matrix(1.5384615,0,0,1.5384615,1.8170231,13.094496)">
    <path
       d="m 23,-24 c -3.3644,0 -6,2.6356 -6,6 h 6 z"
       opacity="0"
       stroke-width="5.9416"
       id="path14" />
    <path
       d="m 23,-23 c -2.8037,0 -5,2.1963 -5,5 h 5 z"
       fill="#ffffff"
       stroke-width="4.9513"
       id="path15"
       style="opacity:1" />
  </g>
  <path
     id="groove-highlight-center"
     d="m 37.201638,-14.597811 v 1.538462 h 4.615385 v -1.538462 z"
     fill="#ffffff"
     stroke-width="2.66462"
     style="opacity:1" />
  <g
     id="groove-highlight-left"
     transform="matrix(1.5384615,0,0,1.5384615,1.8170231,13.094496)">
    <path
       d="m 17,-18 v 1 h 6 v -1 z"
       opacity="0"
       stroke-width="2.4494"
       id="path16" />
    <path
       d="m 18,-18 v 1 h 5 v -1 z"
       fill="#ffffff"
       stroke-width="2.236"
       id="path17"
       style="opacity:1" />
  </g>
  <g
     id="groove-top"
     transform="matrix(1.5384615,0,0,1.5384615,-0.53846154,12.923077)">
    <path
       d="m 7,-24 v 6 h 3 v -6 z"
       opacity="0.13"
       stroke-width="4.2426"
       id="path18"
       style="stroke-width:4.24255011;stroke-dasharray:none;fill:#ffffff;fill-opacity:1;opacity:0.15" />
    <path
       d="m 7,-24 v 1 h 3 v -1 z"
       opacity="0.06"
       stroke-width="1.732"
       id="path19"
       style="stroke-width:1.73225004;stroke-dasharray:none;fill:#000000;fill-opacity:1;opacity:0.15" />
  </g>
  <use
     id="groove-topright"
     transform="matrix(-1,0,0,1,25.076923,0)"
     width="100%"
     height="100%"
     xlink:href="#groove-topleft" />
  <g
     id="groove-left"
     transform="matrix(1.5384615,0,0,1.5384615,-0.53846154,12.923077)">
    <path
       d="m 1,-18 v 1 h 6 v -1 z"
       opacity="0.13"
       stroke-width="2.4494"
       id="path20"
       style="fill:#ffffff;fill-opacity:1;opacity:0.15" />
    <path
       d="m 1,-18 v 1 h 1 v -1 z"
       opacity="0.06"
       stroke-width="0.99997"
       id="path21"
       style="opacity:0.15;fill:#000000;fill-opacity:1" />
  </g>
  <use
     id="groove-right"
     transform="matrix(-1,0,0,1,25.076923,0)"
     width="100%"
     height="100%"
     xlink:href="#groove-left" />
  <use
     id="groove-bottomleft"
     transform="matrix(1,0,0,-1,0,-28)"
     width="100%"
     height="100%"
     xlink:href="#groove-topleft" />
  <use
     id="groove-bottomright"
     transform="rotate(180,12.538462,-14)"
     width="100%"
     height="100%"
     xlink:href="#groove-topleft" />
  <use
     id="groove-bottom"
     transform="matrix(1,0,0,-1,0,-28)"
     width="100%"
     height="100%"
     xlink:href="#groove-top" />
  <use
     id="groove-highlight-topright"
     transform="matrix(-1,0,0,1,79.018661,-4.5818182e-8)"
     width="100%"
     height="100%"
     xlink:href="#groove-highlight-topleft" />
  <use
     id="groove-highlight-bottomleft"
     transform="matrix(1,0,0,-1,-3.3624243e-7,-27.65716)"
     width="100%"
     height="100%"
     xlink:href="#groove-highlight-topleft" />
  <use
     id="groove-highlight-bottomright"
     transform="matrix(0,-1,-1,0,27.219212,24.142289)"
     width="100%"
     height="100%"
     xlink:href="#groove-highlight-topleft" />
  <use
     id="groove-highlight-bottom"
     transform="matrix(1,0,0,-1,-3.3624243e-7,-27.65716)"
     width="100%"
     height="100%"
     xlink:href="#groove-highlight-top" />
  <use
     id="groove-highlight-right"
     transform="matrix(-1,0,0,1,79.018661,-4.5818182e-8)"
     width="100%"
     height="100%"
     xlink:href="#groove-highlight-left" />
  <use
     id="horizontal-slider-handle"
     transform="translate(0.42854952,34.885465)"
     width="100%"
     height="100%"
     xlink:href="#vertical-slider-handle" />
  <use
     id="horizontal-slider-hover"
     transform="translate(0.08570992,34.628336)"
     width="100%"
     height="100%"
     xlink:href="#vertical-slider-hover" />
  <use
     id="horizontal-slider-focus"
     transform="translate(-0.08570988,34.799755)"
     width="100%"
     height="100%"
     xlink:href="#vertical-slider-focus" />
</svg>
